<?xml version="1.0" standalone="no"?>
<!DOCTYPE svg PUBLIC "-//W3C//DTD SVG 20010904//EN"
 "http://www.w3.org/TR/2001/REC-SVG-20010904/DTD/svg10.dtd">
<svg version="1.0" xmlns="http://www.w3.org/2000/svg"
 width="192.000000pt" height="192.000000pt" viewBox="0 0 192.000000 192.000000"
 preserveAspectRatio="xMidYMid meet">
<metadata>
Created by potrace 1.14, written by Peter Selinger 2001-2017
</metadata>
<g transform="translate(0.000000,192.000000) scale(0.100000,-0.100000)"
fill="#000000" stroke="none">
<path d="M830 1738 c-25 -5 -63 -13 -85 -19 -22 -6 -44 -10 -49 -9 -5 1 -12
-2 -15 -7 -6 -8 -133 -71 -149 -74 -4 -1 -13 -10 -20 -20 -7 -11 -18 -19 -23
-19 -5 0 -20 -11 -33 -25 -13 -14 -28 -25 -34 -25 -6 0 -12 -4 -14 -9 -1 -5
-18 -26 -35 -47 -85 -101 -157 -231 -169 -304 -3 -14 -8 -34 -11 -45 -4 -11
-7 -27 -8 -35 0 -8 -3 -19 -6 -25 -8 -13 -2 -230 6 -270 4 -16 7 -38 8 -47 1
-10 4 -18 8 -18 4 0 11 -15 14 -32 8 -37 56 -141 68 -146 4 -2 7 -10 7 -18 0
-8 5 -14 10 -14 6 0 10 -6 10 -12 0 -7 12 -27 28 -43 15 -17 44 -49 64 -73 21
-23 38 -39 38 -35 1 5 9 -2 19 -14 10 -12 21 -19 25 -16 3 4 6 1 6 -5 0 -6 32
-29 70 -50 39 -21 67 -41 64 -44 -3 -3 1 -5 8 -5 15 2 101 -24 108 -33 3 -3
14 -6 25 -7 11 -1 31 -5 45 -8 14 -4 118 -9 233 -11 114 -2 211 -5 216 -8 4
-3 11 -3 13 0 3 3 64 6 134 7 119 2 134 4 186 30 65 32 122 100 143 170 8 27
13 112 14 232 1 105 2 195 2 200 1 32 -9 280 -11 280 -2 0 -3 11 -4 25 -1 14
-5 31 -9 38 -5 6 -6 16 -3 21 4 5 2 11 -4 13 -5 1 -11 12 -13 23 -1 11 -15 46
-30 79 -15 32 -27 62 -27 67 0 5 -4 9 -10 9 -5 0 -10 7 -10 15 0 8 -4 15 -10
15 -5 0 -10 5 -10 11 0 6 -6 16 -12 24 -7 7 -29 32 -47 55 -41 50 -49 58 -87
85 -15 11 -33 26 -40 33 -7 7 -49 32 -94 56 -44 23 -77 46 -73 50 4 4 0 4 -8
1 -9 -3 -36 1 -60 9 -24 8 -57 18 -74 21 -49 10 -237 12 -285 3z"/>
</g>
</svg>
